<svg width="100" height="100" viewBox="0 0 100 100" fill="none" xmlns="http://www.w3.org/2000/svg">
<circle cx="50" cy="50" r="50" fill="#FFFFFE"/>
<g clip-path="url(#clip0_509_258)">
<path d="M59.6429 32.25C59.6429 29.7222 58.6269 27.2978 56.8185 25.5104C55.0101 23.7229 52.5574 22.7188 50 22.7188C47.4426 22.7188 44.9899 23.7229 43.1815 25.5104C41.3731 27.2978 40.3571 29.7222 40.3571 32.25C40.3571 34.7778 41.3731 37.2022 43.1815 38.9896C44.9899 40.7771 47.4426 41.7812 50 41.7812C52.5574 41.7812 55.0101 40.7771 56.8185 38.9896C58.6269 37.2022 59.6429 34.7778 59.6429 32.25ZM34.5714 32.25C34.5714 28.2054 36.1969 24.3266 39.0904 21.4666C41.9838 18.6067 45.9081 17 50 17C54.0919 17 58.0162 18.6067 60.9096 21.4666C63.8031 24.3266 65.4286 28.2054 65.4286 32.25C65.4286 36.2946 63.8031 40.1734 60.9096 43.0334C58.0162 45.8933 54.0919 47.5 50 47.5C45.9081 47.5 41.9838 45.8933 39.0904 43.0334C36.1969 40.1734 34.5714 36.2946 34.5714 32.25ZM28.9424 72.2812H71.0696C69.9969 64.7396 63.4397 58.9375 55.5205 58.9375H44.5036C36.5844 58.9375 30.0272 64.7396 28.9545 72.2812H28.9424ZM23 74.4615C23 62.7262 32.6188 53.2188 44.4915 53.2188H55.5085C67.3813 53.2188 77 62.7262 77 74.4615C77 76.4154 75.3969 78 73.4201 78H26.5799C24.6031 78 23 76.4154 23 74.4615Z" fill="#232946"/>
</g>
<defs>
<clipPath id="clip0_509_258">
<rect width="54" height="61" fill="white" transform="translate(23 17)"/>
</clipPath>
</defs>
</svg>
