<svg width="63" height="43" viewBox="0 0 63 43" fill="none" xmlns="http://www.w3.org/2000/svg">
<g clip-path="url(#clip0_112_111)">
<path d="M14.7773 31V10.6289H22.7891C24.3385 10.6289 25.6556 10.9251 26.7402 11.5176C27.834 12.11 28.668 12.9258 29.2422 13.9648C29.8164 15.0039 30.1035 16.1979 30.1035 17.5469C30.1035 18.8958 29.8118 20.0853 29.2285 21.1152C28.6452 22.1452 27.8021 22.9518 26.6992 23.5352C25.5964 24.1094 24.2611 24.3965 22.6934 24.3965H19.0703V31H14.7773ZM19.0703 20.9512H21.9824C23.2311 20.9512 24.1562 20.6367 24.7578 20.0078C25.3685 19.3698 25.6738 18.5495 25.6738 17.5469C25.6738 16.526 25.3685 15.7057 24.7578 15.0859C24.1471 14.4661 23.2174 14.1562 21.9688 14.1562H19.0703V20.9512Z" fill="#EBF9FF"/>
<path d="M22.002 14.1836V10.6289H38.7227V14.1836H32.5156V31H28.2227V14.1836H22.002Z" fill="#08A2FF"/>
<path d="M39.668 31.2871C37.1979 31.2871 35.2246 30.722 33.748 29.5918C32.2806 28.4616 31.515 26.7982 31.4512 24.6016H35.6211C35.694 25.6224 36.0951 26.3926 36.8242 26.9121C37.5625 27.4225 38.4922 27.6777 39.6133 27.6777C40.707 27.6777 41.582 27.4453 42.2383 26.9805C42.9036 26.5156 43.2363 25.9095 43.2363 25.1621C43.2363 24.4785 42.9355 23.9544 42.334 23.5898C41.7324 23.2161 40.8757 22.8971 39.7637 22.6328L37.5352 22.0859C35.8216 21.6758 34.4681 21.0241 33.4746 20.1309C32.4902 19.2285 31.998 18.0254 31.998 16.5215C31.998 15.291 32.3307 14.2155 32.9961 13.2949C33.6615 12.3652 34.5729 11.6452 35.7305 11.1348C36.8971 10.6152 38.2233 10.3555 39.709 10.3555C41.222 10.3555 42.5436 10.6152 43.6738 11.1348C44.804 11.6543 45.6836 12.3743 46.3125 13.2949C46.9505 14.2155 47.2786 15.2773 47.2969 16.4805H43.1406C43.0677 15.6875 42.7305 15.0677 42.1289 14.6211C41.5273 14.1745 40.7116 13.9512 39.6816 13.9512C38.6335 13.9512 37.8268 14.1699 37.2617 14.6074C36.6966 15.0358 36.4141 15.5827 36.4141 16.248C36.4141 16.9681 36.7285 17.515 37.3574 17.8887C37.9863 18.2533 38.7428 18.5404 39.627 18.75L41.4453 19.2012C42.6302 19.4655 43.6829 19.8529 44.6035 20.3633C45.5241 20.8646 46.2487 21.5117 46.7773 22.3047C47.306 23.0885 47.5703 24.0456 47.5703 25.1758C47.5703 27.0443 46.873 28.5299 45.4785 29.6328C44.084 30.7357 42.1471 31.2871 39.668 31.2871Z" fill="#EBF9FF"/>
</g>
<defs>
<clipPath id="clip0_112_111">
<path d="M0 0H53C58.5228 0 63 4.47715 63 10V33C63 38.5228 58.5228 43 53 43H0V0Z" fill="white"/>
</clipPath>
</defs>
</svg>
